<svg width="232" height="19" viewBox="0 0 232 19" fill="none" xmlns="http://www.w3.org/2000/svg">
<path d="M32.9761 4.362C32.6761 4.362 32.4241 4.26 32.2201 4.056C32.0161 3.852 31.9141 3.606 31.9141 3.318C31.9141 3.03 32.0161 2.784 32.2201 2.58C32.4241 2.364 32.6761 2.256 32.9761 2.256C33.2641 2.256 33.5101 2.364 33.7141 2.58C33.9181 2.784 34.0201 3.03 34.0201 3.318C34.0201 3.606 33.9181 3.852 33.7141 4.056C33.5101 4.26 33.2641 4.362 32.9761 4.362ZM32.1841 15V6H33.7501V15H32.1841ZM40.6212 5.766C41.6772 5.766 42.5232 6.102 43.1592 6.774C43.7952 7.434 44.1132 8.334 44.1132 9.474V15H42.5472V9.564C42.5472 8.832 42.3492 8.268 41.9532 7.872C41.5572 7.464 41.0112 7.26 40.3152 7.26C39.5352 7.26 38.9052 7.506 38.4252 7.998C37.9452 8.478 37.7052 9.222 37.7052 10.23V15H36.1392V6H37.7052V7.296C38.3412 6.276 39.3132 5.766 40.6212 5.766ZM50.9253 3.678C49.3413 3.546 48.5493 4.23 48.5493 5.73V6H50.9253V7.512H48.5493V15H46.9833V7.512H45.5433V6H46.9833V5.73C46.9833 4.518 47.3193 3.6 47.9913 2.976C48.6753 2.352 49.6533 2.082 50.9253 2.166V3.678ZM59.2215 13.866C58.2975 14.778 57.1755 15.234 55.8555 15.234C54.5355 15.234 53.4135 14.778 52.4895 13.866C51.5775 12.954 51.1215 11.832 51.1215 10.5C51.1215 9.168 51.5775 8.046 52.4895 7.134C53.4135 6.222 54.5355 5.766 55.8555 5.766C57.1755 5.766 58.2975 6.222 59.2215 7.134C60.1455 8.046 60.6075 9.168 60.6075 10.5C60.6075 11.832 60.1455 12.954 59.2215 13.866ZM55.8555 13.704C56.7555 13.704 57.5115 13.398 58.1235 12.786C58.7355 12.174 59.0415 11.412 59.0415 10.5C59.0415 9.588 58.7355 8.826 58.1235 8.214C57.5115 7.602 56.7555 7.296 55.8555 7.296C54.9675 7.296 54.2175 7.602 53.6055 8.214C52.9935 8.826 52.6875 9.588 52.6875 10.5C52.6875 11.412 52.9935 12.174 53.6055 12.786C54.2175 13.398 54.9675 13.704 55.8555 13.704ZM68.5016 3.984C69.7736 3.984 70.9016 4.296 71.8856 4.92C72.8696 5.532 73.6016 6.3 74.0816 7.224C74.5616 8.148 74.8016 9.12 74.8016 10.14C74.8016 11.4 74.5376 12.36 74.0096 13.02C73.4816 13.668 72.8516 13.992 72.1196 13.992C70.9796 13.992 70.2656 13.488 69.9776 12.48C69.4976 13.092 68.8556 13.398 68.0516 13.398C67.2356 13.398 66.5576 13.122 66.0176 12.57C65.4896 12.018 65.2256 11.328 65.2256 10.5C65.2256 9.672 65.4896 8.982 66.0176 8.43C66.5576 7.878 67.2356 7.602 68.0516 7.602C68.7716 7.602 69.3776 7.866 69.8696 8.394V7.746H71.2556V11.724C71.2556 12.78 71.6336 13.308 72.3896 13.308C72.9176 13.308 73.3496 13.05 73.6856 12.534C74.0336 12.006 74.2076 11.208 74.2076 10.14C74.2076 8.556 73.6556 7.224 72.5516 6.144C71.4596 5.064 70.1096 4.524 68.5016 4.524C66.8456 4.524 65.4356 5.1 64.2716 6.252C63.1076 7.392 62.5256 8.808 62.5256 10.5C62.5256 12.228 63.1196 13.656 64.3076 14.784C65.5076 15.912 67.0136 16.476 68.8256 16.476C70.0136 16.476 71.0336 16.308 71.8856 15.972V16.548C71.0456 16.86 70.0256 17.016 68.8256 17.016C66.8576 17.016 65.2196 16.398 63.9116 15.162C62.6036 13.938 61.9496 12.384 61.9496 10.5C61.9496 8.688 62.5736 7.152 63.8216 5.892C65.0816 4.62 66.6416 3.984 68.5016 3.984ZM67.0976 11.67C67.4216 11.958 67.8116 12.102 68.2676 12.102C68.7236 12.102 69.1016 11.958 69.4016 11.67C69.7136 11.37 69.8696 10.98 69.8696 10.5C69.8696 10.02 69.7136 9.636 69.4016 9.348C69.1016 9.048 68.7236 8.898 68.2676 8.898C67.8116 8.898 67.4216 9.048 67.0976 9.348C66.7856 9.636 66.6296 10.02 66.6296 10.5C66.6296 10.98 66.7856 11.37 67.0976 11.67ZM84.1268 6H85.6748V14.622C85.6748 15.954 85.2248 16.986 84.3248 17.718C83.4248 18.462 82.3448 18.834 81.0848 18.834C80.0768 18.834 79.2068 18.642 78.4748 18.258C77.7428 17.886 77.1908 17.346 76.8188 16.638L78.1868 15.864C78.6788 16.872 79.6568 17.376 81.1208 17.376C82.0568 17.376 82.7888 17.13 83.3168 16.638C83.8568 16.146 84.1268 15.474 84.1268 14.622V13.344C83.3348 14.544 82.2068 15.144 80.7428 15.144C79.4588 15.144 78.3728 14.688 77.4848 13.776C76.5968 12.864 76.1528 11.754 76.1528 10.446C76.1528 9.138 76.5968 8.034 77.4848 7.134C78.3728 6.222 79.4588 5.766 80.7428 5.766C82.2188 5.766 83.3468 6.36 84.1268 7.548V6ZM78.6368 12.732C79.2488 13.344 80.0108 13.65 80.9228 13.65C81.8348 13.65 82.5968 13.344 83.2088 12.732C83.8208 12.12 84.1268 11.358 84.1268 10.446C84.1268 9.546 83.8208 8.79 83.2088 8.178C82.5968 7.566 81.8348 7.26 80.9228 7.26C80.0108 7.26 79.2488 7.566 78.6368 8.178C78.0248 8.79 77.7188 9.546 77.7188 10.446C77.7188 11.358 78.0248 12.12 78.6368 12.732ZM89.1454 11.22C89.3014 12.024 89.6674 12.648 90.2434 13.092C90.8314 13.536 91.5514 13.758 92.4034 13.758C93.5914 13.758 94.4554 13.32 94.9954 12.444L96.3274 13.2C95.4514 14.556 94.1314 15.234 92.3674 15.234C90.9394 15.234 89.7754 14.79 88.8754 13.902C87.9874 13.002 87.5434 11.868 87.5434 10.5C87.5434 9.144 87.9814 8.016 88.8574 7.116C89.7334 6.216 90.8674 5.766 92.2594 5.766C93.5794 5.766 94.6534 6.234 95.4814 7.17C96.3214 8.094 96.7414 9.21 96.7414 10.518C96.7414 10.746 96.7234 10.98 96.6874 11.22H89.1454ZM92.2594 7.242C91.4194 7.242 90.7234 7.482 90.1714 7.962C89.6194 8.43 89.2774 9.06 89.1454 9.852H95.1574C95.0254 9 94.6894 8.352 94.1494 7.908C93.6094 7.464 92.9794 7.242 92.2594 7.242ZM103.024 5.766C104.08 5.766 104.926 6.102 105.562 6.774C106.198 7.434 106.516 8.334 106.516 9.474V15H104.95V9.564C104.95 8.832 104.752 8.268 104.356 7.872C103.96 7.464 103.414 7.26 102.718 7.26C101.938 7.26 101.308 7.506 100.828 7.998C100.348 8.478 100.108 9.222 100.108 10.23V15H98.5415V6H100.108V7.296C100.744 6.276 101.716 5.766 103.024 5.766ZM109.494 4.362C109.194 4.362 108.942 4.26 108.738 4.056C108.534 3.852 108.432 3.606 108.432 3.318C108.432 3.03 108.534 2.784 108.738 2.58C108.942 2.364 109.194 2.256 109.494 2.256C109.782 2.256 110.028 2.364 110.232 2.58C110.436 2.784 110.538 3.03 110.538 3.318C110.538 3.606 110.436 3.852 110.232 4.056C110.028 4.26 109.782 4.362 109.494 4.362ZM108.702 15V6H110.268V15H108.702ZM118.867 6H120.433V15H118.867V13.704C118.231 14.724 117.259 15.234 115.951 15.234C114.895 15.234 114.049 14.904 113.413 14.244C112.777 13.572 112.459 12.666 112.459 11.526V6H114.025V11.436C114.025 12.168 114.223 12.738 114.619 13.146C115.015 13.542 115.561 13.74 116.257 13.74C117.037 13.74 117.667 13.5 118.147 13.02C118.627 12.528 118.867 11.778 118.867 10.77V6ZM124.149 8.43C124.149 8.778 124.323 9.06 124.671 9.276C125.019 9.48 125.439 9.648 125.931 9.78C126.423 9.9 126.915 10.044 127.407 10.212C127.899 10.368 128.319 10.644 128.667 11.04C129.015 11.424 129.189 11.922 129.189 12.534C129.189 13.35 128.871 14.004 128.235 14.496C127.611 14.988 126.807 15.234 125.823 15.234C124.947 15.234 124.197 15.042 123.573 14.658C122.949 14.274 122.505 13.764 122.241 13.128L123.591 12.354C123.735 12.786 124.005 13.128 124.401 13.38C124.797 13.632 125.271 13.758 125.823 13.758C126.339 13.758 126.765 13.662 127.101 13.47C127.437 13.266 127.605 12.954 127.605 12.534C127.605 12.186 127.431 11.91 127.083 11.706C126.735 11.49 126.315 11.322 125.823 11.202C125.331 11.07 124.839 10.92 124.347 10.752C123.855 10.584 123.435 10.308 123.087 9.924C122.739 9.54 122.565 9.048 122.565 8.448C122.565 7.668 122.865 7.026 123.465 6.522C124.077 6.018 124.839 5.766 125.751 5.766C126.483 5.766 127.131 5.934 127.695 6.27C128.271 6.594 128.703 7.05 128.991 7.638L127.677 8.376C127.353 7.608 126.711 7.224 125.751 7.224C125.307 7.224 124.929 7.332 124.617 7.548C124.305 7.752 124.149 8.046 124.149 8.43ZM130.854 10.23V8.718H137.424V10.23H130.854ZM141.306 8.43C141.306 8.778 141.48 9.06 141.828 9.276C142.176 9.48 142.596 9.648 143.088 9.78C143.58 9.9 144.072 10.044 144.564 10.212C145.056 10.368 145.476 10.644 145.824 11.04C146.172 11.424 146.346 11.922 146.346 12.534C146.346 13.35 146.028 14.004 145.392 14.496C144.768 14.988 143.964 15.234 142.98 15.234C142.104 15.234 141.354 15.042 140.73 14.658C140.106 14.274 139.662 13.764 139.398 13.128L140.748 12.354C140.892 12.786 141.162 13.128 141.558 13.38C141.954 13.632 142.428 13.758 142.98 13.758C143.496 13.758 143.922 13.662 144.258 13.47C144.594 13.266 144.762 12.954 144.762 12.534C144.762 12.186 144.588 11.91 144.24 11.706C143.892 11.49 143.472 11.322 142.98 11.202C142.488 11.07 141.996 10.92 141.504 10.752C141.012 10.584 140.592 10.308 140.244 9.924C139.896 9.54 139.722 9.048 139.722 8.448C139.722 7.668 140.022 7.026 140.622 6.522C141.234 6.018 141.996 5.766 142.908 5.766C143.64 5.766 144.288 5.934 144.852 6.27C145.428 6.594 145.86 7.05 146.148 7.638L144.834 8.376C144.51 7.608 143.868 7.224 142.908 7.224C142.464 7.224 142.086 7.332 141.774 7.548C141.462 7.752 141.306 8.046 141.306 8.43ZM152.184 15.234C150.828 15.234 149.7 14.784 148.8 13.884C147.9 12.972 147.45 11.844 147.45 10.5C147.45 9.156 147.9 8.034 148.8 7.134C149.7 6.222 150.828 5.766 152.184 5.766C153.072 5.766 153.87 5.982 154.578 6.414C155.286 6.834 155.814 7.404 156.162 8.124L154.848 8.88C154.62 8.4 154.266 8.016 153.786 7.728C153.318 7.44 152.784 7.296 152.184 7.296C151.284 7.296 150.528 7.602 149.916 8.214C149.316 8.826 149.016 9.588 149.016 10.5C149.016 11.4 149.316 12.156 149.916 12.768C150.528 13.38 151.284 13.686 152.184 13.686C152.784 13.686 153.324 13.548 153.804 13.272C154.284 12.984 154.65 12.6 154.902 12.12L156.234 12.894C155.85 13.602 155.298 14.172 154.578 14.604C153.858 15.024 153.06 15.234 152.184 15.234ZM162.262 5.766C163.318 5.766 164.164 6.102 164.8 6.774C165.436 7.434 165.754 8.334 165.754 9.474V15H164.188V9.564C164.188 8.832 163.99 8.268 163.594 7.872C163.198 7.464 162.652 7.26 161.956 7.26C161.176 7.26 160.546 7.506 160.066 7.998C159.586 8.478 159.346 9.222 159.346 10.23V15H157.78V2.4H159.346V7.296C159.982 6.276 160.954 5.766 162.262 5.766ZM175.536 13.866C174.612 14.778 173.49 15.234 172.17 15.234C170.85 15.234 169.728 14.778 168.804 13.866C167.892 12.954 167.436 11.832 167.436 10.5C167.436 9.168 167.892 8.046 168.804 7.134C169.728 6.222 170.85 5.766 172.17 5.766C173.49 5.766 174.612 6.222 175.536 7.134C176.46 8.046 176.922 9.168 176.922 10.5C176.922 11.832 176.46 12.954 175.536 13.866ZM172.17 13.704C173.07 13.704 173.826 13.398 174.438 12.786C175.05 12.174 175.356 11.412 175.356 10.5C175.356 9.588 175.05 8.826 174.438 8.214C173.826 7.602 173.07 7.296 172.17 7.296C171.282 7.296 170.532 7.602 169.92 8.214C169.308 8.826 169.002 9.588 169.002 10.5C169.002 11.412 169.308 12.174 169.92 12.786C170.532 13.398 171.282 13.704 172.17 13.704ZM186.364 13.866C185.44 14.778 184.318 15.234 182.998 15.234C181.678 15.234 180.556 14.778 179.632 13.866C178.72 12.954 178.264 11.832 178.264 10.5C178.264 9.168 178.72 8.046 179.632 7.134C180.556 6.222 181.678 5.766 182.998 5.766C184.318 5.766 185.44 6.222 186.364 7.134C187.288 8.046 187.75 9.168 187.75 10.5C187.75 11.832 187.288 12.954 186.364 13.866ZM182.998 13.704C183.898 13.704 184.654 13.398 185.266 12.786C185.878 12.174 186.184 11.412 186.184 10.5C186.184 9.588 185.878 8.826 185.266 8.214C184.654 7.602 183.898 7.296 182.998 7.296C182.11 7.296 181.36 7.602 180.748 8.214C180.136 8.826 179.83 9.588 179.83 10.5C179.83 11.412 180.136 12.174 180.748 12.786C181.36 13.398 182.11 13.704 182.998 13.704ZM189.596 15V1.86H191.162V15H189.596ZM194.541 15.198C194.217 15.198 193.941 15.084 193.713 14.856C193.485 14.628 193.371 14.352 193.371 14.028C193.371 13.704 193.485 13.428 193.713 13.2C193.941 12.972 194.217 12.858 194.541 12.858C194.877 12.858 195.153 12.972 195.369 13.2C195.597 13.428 195.711 13.704 195.711 14.028C195.711 14.352 195.597 14.628 195.369 14.856C195.153 15.084 194.877 15.198 194.541 15.198ZM201.438 15.234C200.082 15.234 198.954 14.784 198.054 13.884C197.154 12.972 196.704 11.844 196.704 10.5C196.704 9.156 197.154 8.034 198.054 7.134C198.954 6.222 200.082 5.766 201.438 5.766C202.326 5.766 203.124 5.982 203.832 6.414C204.54 6.834 205.068 7.404 205.416 8.124L204.102 8.88C203.874 8.4 203.52 8.016 203.04 7.728C202.572 7.44 202.038 7.296 201.438 7.296C200.538 7.296 199.782 7.602 199.17 8.214C198.57 8.826 198.27 9.588 198.27 10.5C198.27 11.4 198.57 12.156 199.17 12.768C199.782 13.38 200.538 13.686 201.438 13.686C202.038 13.686 202.578 13.548 203.058 13.272C203.538 12.984 203.904 12.6 204.156 12.12L205.488 12.894C205.104 13.602 204.552 14.172 203.832 14.604C203.112 15.024 202.314 15.234 201.438 15.234ZM207.034 15V1.86H208.6V15H207.034ZM217.199 6H218.765V15H217.199V13.704C216.563 14.724 215.591 15.234 214.283 15.234C213.227 15.234 212.381 14.904 211.745 14.244C211.109 13.572 210.791 12.666 210.791 11.526V6H212.357V11.436C212.357 12.168 212.555 12.738 212.951 13.146C213.347 13.542 213.893 13.74 214.589 13.74C215.369 13.74 215.999 13.5 216.479 13.02C216.959 12.528 217.199 11.778 217.199 10.77V6ZM226.117 5.766C227.377 5.766 228.451 6.228 229.339 7.152C230.227 8.064 230.671 9.18 230.671 10.5C230.671 11.82 230.227 12.942 229.339 13.866C228.451 14.778 227.377 15.234 226.117 15.234C224.629 15.234 223.495 14.64 222.715 13.452V15H221.149V2.4H222.715V7.548C223.495 6.36 224.629 5.766 226.117 5.766ZM225.919 13.722C226.819 13.722 227.575 13.416 228.187 12.804C228.799 12.18 229.105 11.412 229.105 10.5C229.105 9.588 228.799 8.826 228.187 8.214C227.575 7.59 226.819 7.278 225.919 7.278C225.007 7.278 224.245 7.59 223.633 8.214C223.021 8.826 222.715 9.588 222.715 10.5C222.715 11.412 223.021 12.18 223.633 12.804C224.245 13.416 225.007 13.722 225.919 13.722Z" fill="black"/>
<a href="mailto:info@genius-school.club">
<rect fill="black" fill-opacity="0" y="-1.593" width="200.359" height="21.186"/>
</a>
<path d="M2.99609 4H14.9961C15.8211 4 16.4961 4.675 16.4961 5.5V14.5C16.4961 15.325 15.8211 16 14.9961 16H2.99609C2.17109 16 1.49609 15.325 1.49609 14.5V5.5C1.49609 4.675 2.17109 4 2.99609 4Z" stroke="black" stroke-width="2" stroke-linecap="round" stroke-linejoin="round"/>
<path d="M16.4961 5.5L8.99609 10.75L1.49609 5.5" stroke="black" stroke-width="2" stroke-linecap="round" stroke-linejoin="round"/>
</svg>
