<svg width="18" height="17" viewBox="0 0 18 17" fill="none" xmlns="http://www.w3.org/2000/svg">
<path d="M16.4962 11.9849V14.1099C16.497 14.3072 16.4542 14.5024 16.3705 14.6832C16.2869 14.8639 16.1641 15.0262 16.0102 15.1596C15.8563 15.2929 15.6746 15.3945 15.4767 15.4577C15.2789 15.5209 15.0692 15.5443 14.8612 15.5266C12.5533 15.2897 10.3364 14.5449 8.38867 13.352C6.57654 12.2645 5.04017 10.8134 3.88867 9.10199C2.62115 7.25409 1.83235 5.15019 1.58617 2.96074C1.56742 2.76486 1.59207 2.56744 1.65854 2.38106C1.72501 2.19467 1.83184 2.02339 1.97224 1.87814C2.11264 1.73288 2.28352 1.61683 2.47401 1.53736C2.6645 1.45789 2.87042 1.41676 3.07867 1.41657H5.32867C5.69265 1.41319 6.04551 1.53492 6.32149 1.75907C6.59746 1.98323 6.77772 2.29451 6.82867 2.63491C6.92363 3.31495 7.09975 3.98267 7.35367 4.62532C7.45457 4.87885 7.47641 5.15439 7.4166 5.41928C7.35678 5.68417 7.21781 5.92732 7.01617 6.11991L6.06367 7.01949C7.13133 8.79283 8.68601 10.2611 10.5637 11.2695L11.5162 10.3699C11.7201 10.1795 11.9775 10.0482 12.258 9.99172C12.5385 9.93523 12.8302 9.95585 13.0987 10.0512C13.7791 10.291 14.4861 10.4573 15.2062 10.547C15.5705 10.5955 15.9032 10.7688 16.1411 11.034C16.3789 11.2991 16.5053 11.6375 16.4962 11.9849Z" stroke="black" stroke-width="2" stroke-linecap="round" stroke-linejoin="round"/>
</svg>
