<svg width="17" height="17" viewBox="0 0 17 17" fill="none" xmlns="http://www.w3.org/2000/svg">
<path d="M16.3546 11.9854V14.1104C16.3554 14.3077 16.3126 14.5029 16.2289 14.6837C16.1453 14.8644 16.0225 15.0267 15.8686 15.16C15.7147 15.2934 15.533 15.3949 15.3351 15.4581C15.1373 15.5213 14.9276 15.5448 14.7196 15.5271C12.4117 15.2902 10.1948 14.5454 8.24706 13.3525C6.43494 12.2649 4.89857 10.8139 3.74706 9.10248C2.47955 7.25458 1.69075 5.15068 1.44456 2.96123C1.42582 2.76535 1.45047 2.56793 1.51694 2.38154C1.58341 2.19516 1.69024 2.02388 1.83064 1.87863C1.97103 1.73337 2.14192 1.61731 2.33241 1.53785C2.5229 1.45838 2.72882 1.41725 2.93706 1.41706H5.18706C5.55104 1.41368 5.90391 1.53541 6.17989 1.75956C6.45586 1.98372 6.63612 2.295 6.68706 2.63539C6.78203 3.31544 6.95815 3.98316 7.21206 4.62581C7.31297 4.87934 7.33481 5.15487 7.27499 5.41977C7.21518 5.68466 7.07621 5.92781 6.87456 6.12039L5.92206 7.01998C6.98973 8.79332 8.5444 10.2616 10.4221 11.27L11.3746 10.3704C11.5785 10.1799 11.8359 10.0487 12.1164 9.99221C12.3969 9.93572 12.6886 9.95634 12.9571 10.0516C13.6375 10.2914 14.3445 10.4578 15.0646 10.5475C15.4289 10.596 15.7616 10.7693 15.9995 11.0345C16.2373 11.2996 16.3637 11.638 16.3546 11.9854Z" stroke="white" stroke-linecap="round" stroke-linejoin="round"/>
</svg>
