<svg width="18" height="17" viewBox="0 0 18 17" fill="none" xmlns="http://www.w3.org/2000/svg">
<path d="M16.3546 11.6392V13.7642C16.3554 13.9615 16.3126 14.1567 16.2289 14.3375C16.1453 14.5182 16.0225 14.6805 15.8686 14.8139C15.7147 14.9472 15.533 15.0488 15.3351 15.112C15.1373 15.1752 14.9276 15.1986 14.7196 15.1809C12.4117 14.944 10.1948 14.1992 8.24706 13.0063C6.43494 11.9188 4.89857 10.4677 3.74706 8.75629C2.47955 6.90839 1.69075 4.80449 1.44456 2.61504C1.42582 2.41916 1.45047 2.22174 1.51694 2.03535C1.58341 1.84897 1.69024 1.67769 1.83064 1.53243C1.97103 1.38718 2.14192 1.27112 2.33241 1.19166C2.5229 1.11219 2.72882 1.07105 2.93706 1.07087H5.18706C5.55104 1.06749 5.90391 1.18922 6.17989 1.41337C6.45586 1.63753 6.63612 1.94881 6.68706 2.2892C6.78203 2.96925 6.95815 3.63697 7.21206 4.27962C7.31297 4.53315 7.33481 4.80868 7.27499 5.07358C7.21518 5.33847 7.07621 5.58161 6.87456 5.7742L5.92206 6.67379C6.98973 8.44713 8.5444 9.91543 10.4221 10.9238L11.3746 10.0242C11.5785 9.83376 11.8359 9.70251 12.1164 9.64602C12.3969 9.58952 12.6886 9.61015 12.9571 9.70545C13.6375 9.94526 14.3445 10.1116 15.0646 10.2013C15.4289 10.2498 15.7616 10.4231 15.9995 10.6883C16.2373 10.9534 16.3637 11.2918 16.3546 11.6392Z" stroke="black" stroke-width="2" stroke-linecap="round" stroke-linejoin="round"/>
</svg>
